<?xml version="1.0" standalone="no"?>
<!DOCTYPE svg PUBLIC "-//W3C//DTD SVG 20010904//EN"
 "http://www.w3.org/TR/2001/REC-SVG-20010904/DTD/svg10.dtd">
<svg version="1.0" xmlns="http://www.w3.org/2000/svg"
 width="3000.000000pt" height="2000.000000pt" viewBox="0 0 3000.000000 2000.000000"
 preserveAspectRatio="xMidYMid meet">

<g transform="translate(0.000000,2000.000000) scale(0.100000,-0.100000)"
fill="#000000" stroke="none">
<path d="M29967 19973 c-6 -30 9 -57 25 -47 5 3 5 11 -2 19 -8 9 -8 15 0 20
15 9 12 35 -4 35 -7 0 -16 -12 -19 -27z"/>
<path d="M29910 19909 c0 -5 5 -7 10 -4 6 3 10 8 10 11 0 2 -4 4 -10 4 -5 0
-10 -5 -10 -11z"/>
<path d="M12695 19850 c4 -6 11 -8 16 -5 14 9 11 15 -7 15 -8 0 -12 -5 -9 -10z"/>
<path d="M29917 19853 c-2 -5 -7 -20 -11 -35 -6 -26 -4 -28 21 -28 26 1 27 2
10 15 -18 13 -18 14 2 27 12 7 21 16 21 20 0 10 -38 10 -43 1z"/>
<path d="M29864 19829 c-19 -21 -19 -21 6 -18 14 2 26 12 28 22 5 23 -11 22
-34 -4z"/>
<path d="M12988 19818 c9 -9 15 -9 24 0 9 9 7 12 -12 12 -19 0 -21 -3 -12 -12z"/>
<path d="M13180 19820 c0 -5 5 -10 10 -10 6 0 10 5 10 10 0 6 -4 10 -10 10 -5
0 -10 -4 -10 -10z"/>
<path d="M12650 19755 c-7 -8 -18 -15 -25 -15 -6 0 -17 -11 -23 -25 -6 -14
-19 -25 -27 -25 -20 0 -36 -41 -23 -57 7 -9 7 -13 -1 -13 -6 0 -11 5 -11 10 0
6 -9 10 -20 10 -13 0 -18 5 -14 15 4 8 1 15 -5 15 -20 0 -12 -48 8 -55 16 -5
18 -11 11 -35 -8 -29 -7 -30 23 -30 41 0 62 -14 54 -34 -12 -30 10 -16 23 14
7 17 26 40 41 51 35 25 40 52 7 40 -25 -9 -68 -3 -68 10 0 5 7 9 15 9 8 0 24
8 35 18 11 9 30 26 42 37 15 13 37 20 64 20 43 1 74 18 74 41 0 10 -9 9 -40
-5 -33 -15 -47 -16 -75 -7 -19 6 -35 14 -35 18 0 13 -17 9 -30 -7z"/>
<path d="M13148 19763 c-19 -5 -24 -18 -10 -27 9 -5 77 16 88 27 8 8 -50 8
-78 0z"/>
<path d="M12900 19720 c0 -5 7 -10 15 -10 8 0 15 5 15 10 0 6 -7 10 -15 10 -8
0 -15 -4 -15 -10z"/>
<path d="M13070 19721 c0 -10 30 -24 37 -17 3 3 2 9 -2 15 -8 13 -35 15 -35 2z"/>
<path d="M13165 19660 c3 -5 8 -10 11 -10 2 0 4 5 4 10 0 6 -5 10 -11 10 -5 0
-7 -4 -4 -10z"/>
<path d="M12720 19615 c0 -17 2 -18 24 -9 23 9 20 24 -4 24 -11 0 -20 -7 -20
-15z"/>
<path d="M12664 19522 c3 -6 -2 -15 -11 -21 -16 -9 -16 -10 5 -11 23 0 31 24
10 36 -6 4 -8 3 -4 -4z"/>
<path d="M12540 19481 c0 -5 -10 -7 -22 -3 -20 5 -21 3 -10 -10 11 -13 11 -20
0 -37 -15 -24 -6 -36 19 -26 12 5 14 9 6 12 -21 8 -15 19 13 21 35 3 44 10 44
33 0 14 -7 19 -25 19 -14 0 -25 -4 -25 -9z"/>
<path d="M13023 19431 c-10 -17 -25 -31 -34 -31 -21 0 -44 -26 -30 -34 13 -8
58 10 64 26 4 10 6 10 6 1 1 -7 5 -13 11 -13 5 0 7 7 4 15 -4 10 0 15 11 15
11 0 15 7 13 22 -5 33 -26 33 -45 -1z"/>
<path d="M12330 19435 c-7 -9 -10 -18 -7 -21 9 -9 48 16 42 27 -9 13 -21 11
-35 -6z"/>
<path d="M13122 19350 c0 -14 2 -19 5 -12 2 6 2 18 0 25 -3 6 -5 1 -5 -13z"/>
<path d="M12020 19340 c0 -5 5 -10 11 -10 5 0 7 5 4 10 -3 6 -8 10 -11 10 -2
0 -4 -4 -4 -10z"/>
<path d="M12302 19228 c2 -6 10 -14 16 -16 7 -2 10 2 6 12 -7 18 -28 22 -22 4z"/>
<path d="M12892 19229 c2 -7 10 -15 17 -17 8 -3 12 1 9 9 -2 7 -10 15 -17 17
-8 3 -12 -1 -9 -9z"/>
<path d="M12922 19167 c2 -18 10 -23 46 -25 64 -5 51 29 -16 41 -30 6 -33 5
-30 -16z"/>
<path d="M12001 19144 c0 -11 3 -14 6 -6 3 7 2 16 -1 19 -3 4 -6 -2 -5 -13z"/>
<path d="M6185 19130 c3 -5 8 -10 11 -10 2 0 4 5 4 10 0 6 -5 10 -11 10 -5 0
-7 -4 -4 -10z"/>
<path d="M13455 19070 c-3 -5 -1 -10 4 -10 6 0 11 5 11 10 0 6 -2 10 -4 10 -3
0 -8 -4 -11 -10z"/>
<path d="M11721 18969 c-20 -19 -21 -23 -9 -36 19 -19 53 -7 37 13 -9 12 -8
18 7 29 15 12 16 14 3 15 -8 0 -25 -10 -38 -21z"/>
<path d="M11835 18584 c-27 -25 -41 -32 -48 -25 -21 21 -27 11 -7 -11 l20 -22
16 22 c8 12 21 22 29 22 15 0 45 27 45 41 0 17 -17 9 -55 -27z"/>
<path d="M13176 18471 c-4 -5 3 -7 14 -4 23 6 26 13 6 13 -8 0 -17 -4 -20 -9z"/>
<path d="M13070 18356 c0 -7 56 -36 70 -36 19 0 10 19 -12 25 -52 15 -58 16
-58 11z"/>
<path d="M29985 18121 c-3 -5 -1 -12 5 -16 5 -3 10 1 10 9 0 18 -6 21 -15 7z"/>
<path d="M29980 18019 c0 -5 5 -7 10 -4 6 3 10 8 10 11 0 2 -4 4 -10 4 -5 0
-10 -5 -10 -11z"/>
<path d="M29944 17990 c0 -23 9 -26 25 -6 9 11 8 15 -5 20 -8 3 -17 6 -18 6
-1 0 -2 -9 -2 -20z"/>
<path d="M20772 17984 c-34 -14 -35 -34 -3 -34 20 0 57 35 44 43 -4 3 -23 -1
-41 -9z"/>
<path d="M29985 17680 c3 -5 8 -10 11 -10 2 0 4 5 4 10 0 6 -5 10 -11 10 -5 0
-7 -4 -4 -10z"/>
<path d="M265 17417 c-18 -10 -15 -12 30 -18 60 -7 76 -1 44 17 -30 16 -48 17
-74 1z"/>
<path d="M4670 17411 c-31 -9 -33 -35 -2 -39 36 -5 51 4 45 27 -6 23 -6 22
-43 12z"/>
<path d="M220 17382 c0 -27 10 -33 28 -16 13 14 13 17 1 25 -21 13 -29 11 -29
-9z"/>
<path d="M161 17337 c-18 -18 -13 -25 14 -19 14 2 25 8 25 12 0 14 -27 19 -39
7z"/>
<path d="M50 17293 c0 -19 19 -55 20 -38 0 6 3 20 6 33 5 16 2 22 -10 22 -9 0
-16 -8 -16 -17z"/>
<path d="M115 17290 c-3 -5 1 -10 9 -10 8 0 18 5 21 10 3 6 -1 10 -9 10 -8 0
-18 -4 -21 -10z"/>
<path d="M4865 17241 c3 -5 1 -12 -5 -16 -20 -12 -10 -23 26 -27 46 -5 51 5
15 31 -31 22 -46 27 -36 12z"/>
<path d="M36 17213 c-6 -14 -5 -15 5 -6 7 7 10 15 7 18 -3 3 -9 -2 -12 -12z"/>
<path d="M5 17100 c3 -5 12 -7 20 -3 21 7 19 13 -6 13 -11 0 -18 -4 -14 -10z"/>
<path d="M4270 16390 c0 -5 5 -10 10 -10 6 0 10 5 10 10 0 6 -4 10 -10 10 -5
0 -10 -4 -10 -10z"/>
<path d="M13970 15785 c0 -10 68 -35 95 -35 31 0 33 18 3 24 -58 12 -98 16
-98 11z"/>
<path d="M13878 15183 c-40 -4 -49 -16 -22 -27 29 -11 53 -6 64 14 6 11 7 19
3 18 -4 -1 -25 -3 -45 -5z"/>
<path d="M13900 15100 c0 -27 36 -50 77 -50 39 0 60 16 31 24 -7 2 -34 10 -60
19 -27 9 -48 12 -48 7z"/>
<path d="M13725 14900 c-10 -11 -16 -20 -13 -20 8 0 68 31 68 36 0 12 -39 1
-55 -16z"/>
<path d="M13727 14853 c-11 -10 -8 -43 3 -43 12 0 31 35 23 44 -8 8 -18 8 -26
-1z"/>
<path d="M11587 14533 c-4 -3 -7 -11 -7 -17 0 -6 5 -5 12 2 6 6 9 14 7 17 -3
3 -9 2 -12 -2z"/>
<path d="M10135 14496 c-35 -9 -44 -14 -30 -17 23 -6 74 6 89 21 12 12 6 12
-59 -4z"/>
<path d="M16250 14380 c0 -5 7 -10 15 -10 8 0 15 5 15 10 0 6 -7 10 -15 10 -8
0 -15 -4 -15 -10z"/>
<path d="M16280 14346 c0 -5 60 -36 68 -36 3 0 -3 9 -13 20 -16 17 -55 28 -55
16z"/>
<path d="M11503 14320 c1 -20 8 -25 20 -14 7 8 -3 34 -13 34 -5 0 -8 -9 -7
-20z"/>
<path d="M11478 14273 c7 -3 16 -2 19 1 4 3 -2 6 -13 5 -11 0 -14 -3 -6 -6z"/>
<path d="M11420 14203 c-7 -32 -14 -81 -14 -108 -2 -60 -32 -109 -73 -120 -16
-3 -35 -13 -45 -21 -14 -14 -21 -13 -58 5 -52 25 -48 6 5 -23 41 -23 85 -23
85 -1 0 15 22 25 55 25 30 0 61 45 45 66 -13 15 -7 19 33 26 23 4 18 24 -5 21
-22 -3 -25 34 -5 61 16 21 41 13 55 -18 6 -13 20 -26 32 -29 19 -5 21 -2 16
19 -5 19 -2 24 11 24 15 1 14 4 -6 20 -13 11 -28 20 -35 20 -19 1 -58 39 -51
50 7 11 -11 40 -25 40 -4 0 -13 -26 -20 -57z"/>
<path d="M11230 14030 c19 -13 30 -13 30 0 0 6 -10 10 -22 10 -19 0 -20 -2 -8
-10z"/>
<path d="M12130 13845 c-24 -14 -23 -14 25 -15 81 0 163 12 140 21 -34 13
-138 9 -165 -6z"/>
<path d="M11280 13760 c0 -5 5 -10 10 -10 6 0 10 5 10 10 0 6 -4 10 -10 10 -5
0 -10 -4 -10 -10z"/>
<path d="M10905 13610 c3 -5 10 -10 16 -10 5 0 9 5 9 10 0 6 -7 10 -16 10 -8
0 -12 -4 -9 -10z"/>
<path d="M10975 13430 c-3 -5 -1 -10 4 -10 6 0 11 5 11 10 0 6 -2 10 -4 10 -3
0 -8 -4 -11 -10z"/>
<path d="M10895 13160 c-17 -19 -17 -19 9 -7 14 7 26 15 26 20 0 13 -17 7 -35
-13z"/>
<path d="M13398 13123 c6 -2 18 -2 25 0 6 3 1 5 -13 5 -14 0 -19 -2 -12 -5z"/>
<path d="M12480 12666 c-8 -11 -9 -20 -1 -33 10 -17 11 -16 17 5 5 17 12 22
25 19 23 -6 25 8 3 17 -23 9 -30 8 -44 -8z"/>
<path d="M8236 12598 c-20 -28 -20 -38 -3 -38 19 0 50 37 42 49 -10 17 -22 13
-39 -11z"/>
<path d="M19127 11773 c-4 -3 -7 -16 -7 -27 1 -21 1 -21 15 -2 8 11 15 23 15
28 0 10 -14 11 -23 1z"/>
<path d="M15701 7189 c-30 -16 -60 -29 -67 -29 -8 0 -14 -4 -14 -10 0 -19 36
-10 82 19 25 16 49 34 52 40 9 15 9 15 -53 -20z"/>
<path d="M14740 6540 c0 -5 11 -10 25 -10 14 0 25 5 25 10 0 6 -11 10 -25 10
-14 0 -25 -4 -25 -10z"/>
<path d="M13980 5946 c0 -2 9 -6 20 -9 11 -3 18 -1 14 4 -5 9 -34 13 -34 5z"/>
<path d="M1062 3878 c7 -19 38 -22 38 -4 0 10 -9 16 -21 16 -12 0 -19 -5 -17
-12z"/>
<path d="M10285 2600 c3 -5 11 -10 16 -10 6 0 7 5 4 10 -3 6 -11 10 -16 10 -6
0 -7 -4 -4 -10z"/>
<path d="M2333 2176 c-4 -8 -26 -21 -47 -30 -49 -21 -41 -31 13 -16 23 6 46 8
51 5 11 -7 29 25 23 43 -6 16 -30 15 -40 -2z"/>
<path d="M2458 2153 c6 -2 18 -2 25 0 6 3 1 5 -13 5 -14 0 -19 -2 -12 -5z"/>
<path d="M2440 2064 c0 -9 5 -14 12 -12 18 6 21 28 4 28 -9 0 -16 -7 -16 -16z"/>
<path d="M1905 760 c3 -5 10 -10 16 -10 5 0 9 5 9 10 0 6 -7 10 -16 10 -8 0
-12 -4 -9 -10z"/>
<path d="M29878 693 c6 -2 18 -2 25 0 6 3 1 5 -13 5 -14 0 -19 -2 -12 -5z"/>
<path d="M510 430 c0 -5 7 -7 15 -4 8 4 15 8 15 10 0 2 -7 4 -15 4 -8 0 -15
-4 -15 -10z"/>
<path d="M29622 378 c6 -18 28 -21 28 -4 0 9 -7 16 -16 16 -9 0 -14 -5 -12
-12z"/>
</g>
</svg>
